# xmcd
#
# Track frame offsets: 
#        150
#        12760
#        24327
#        38013
#        51512
#        65171
#        78917
#        94149
#        108580
#        123907
#        137016
#        151456
#        163533
#        174379
#        186462
#        198954
#        213027
#
# Disc length: 3036 seconds
#
# Revision: 1
# Processed by: cddbd v1.5.2PL0 Copyright (c) Steve Scherf et al.
# Submitted via: ExactAudioCopy v0.99pb4
#
DISCID=e00bda11
DTITLE=Various Artist - This Jazz Is Hot - A Compilation By DJ Steins
DTITLE=ki
DYEAR=2008
DGENRE=Jazz
TTITLE0=Mckinney's Cotton Pickers - Four Or Five Times
TTITLE1=Jimmy Bertrand's Washboard Wizards - Easy Come Easy Go Blues
TTITLE2=Sharkey Bonano and His Sharks Of Rhythm - I'm Satisfied With M
TTITLE2=y Gal
TTITLE3=The Harlem Hamfats - Move Your Hand
TTITLE4=Eddy Condon and His Orchestra feat. Bud Freeman - The Eel
TTITLE5=The Mound City Blue Blowers - Wah-Hoo!
TTITLE6=Grant Moore and This New Orleans Black Devils - Mama Don't All
TTITLE6=ow No Music Playing Around Here
TTITLE7=Wingy Manone and His Orchestra - The Isle Of Capri
TTITLE8=Jelly Roll Morton - Wolverine Blues
TTITLE9=Ja McShann and His Orchestra - Hootie Blues
TTITLE10=Cound Basie and and His Orchestra with Jimmy Rushing - Lose T
TTITLE10=he Blackout Blues
TTITLE11=Cootie Williams and His Orchestra feat. Eddie "Cleanhead" Vin
TTITLE11=son - When My Baby Left Me
TTITLE12=Duke Ellington and His Orchestra with Ivie Anderson - Killing
TTITLE12=Myself
TTITLE13=Lil Armstrong and Her Swing Orchestra - My Hi-De-Ho Man
TTITLE14=Cab Calloway and His Orchestra - Everybody Eats When They Com
TTITLE14=e To My House
TTITLE15=The Quintet of The Hot Club of France with Freddy Taylor - Af
TTITLE15=ter You've Gone
TTITLE16=The Boswell Sisters - The Music Goes Round And Round
EXTD=
EXTT0=
EXTT1=
EXTT2=
EXTT3=
EXTT4=
EXTT5=
EXTT6=
EXTT7=
EXTT8=
EXTT9=
EXTT10=
EXTT11=
EXTT12=
EXTT13=
EXTT14=
EXTT15=
EXTT16=
PLAYORDER=
